<svg xmlns="http://www.w3.org/2000/svg" width="820" height="620" viewBox="0 0 820 620">
<defs>
  <style>
    text { font-family: "Segoe UI", Arial, sans-serif; }
    .title { font-size: 18px; font-weight: bold; fill: #1a1a2e; }
    .subtitle { font-size: 13px; fill: #555; }
    .label { font-size: 11px; fill: #333; font-weight: 600; }
    .small { font-size: 9px; fill: #666; }
    .tiny { font-size: 8px; fill: #888; }
    .count { font-size: 10px; fill: #0d47a1; font-weight: bold; }
    .edge-label { font-size: 9px; fill: #c62828; font-weight: 600; }
  </style>
  <marker id="arrowhead" markerWidth="10" markerHeight="7" refX="9" refY="3.5" orient="auto">
    <polygon points="0 0, 10 3.5, 0 7" fill="#555"/>
  </marker>
  <marker id="arrowhead-red" markerWidth="10" markerHeight="7" refX="9" refY="3.5" orient="auto">
    <polygon points="0 0, 10 3.5, 0 7" fill="#c62828"/>
  </marker>
  <marker id="arrowhead-blue" markerWidth="10" markerHeight="7" refX="9" refY="3.5" orient="auto">
    <polygon points="0 0, 10 3.5, 0 7" fill="#1565c0"/>
  </marker>
  <marker id="arrowhead-green" markerWidth="10" markerHeight="7" refX="9" refY="3.5" orient="auto">
    <polygon points="0 0, 10 3.5, 0 7" fill="#2e7d32"/>
  </marker>
</defs>
<text x="410" y="28" class="title" text-anchor="middle">ADNI Knowledge Graph (KG) — After Phase 1</text>
<text x="410" y="48" class="subtitle" text-anchor="middle">Ontology-grounded | 52 OntologyConcept nodes | ~127K new semantic edges</text>
<circle cx="410" cy="160" r="42" fill="#bbdefb" stroke="#1565c0" stroke-width="1.5"/>
<text x="410" y="152" class="label" text-anchor="middle">Patient</text>
<text x="410" y="167" class="count" text-anchor="middle">2,638</text>
<text x="410" y="180" class="tiny" text-anchor="middle">rdf_type: ncit:C16960</text>
<circle cx="190" cy="280" r="36" fill="#c8e6c9" stroke="#2e7d32" stroke-width="1.5"/>
<text x="190" y="272" class="label" text-anchor="middle">Visit</text>
<text x="190" y="287" class="count" text-anchor="middle">30,267</text>
<text x="190" y="300" class="tiny" text-anchor="middle">rdf_type: ncit:C159705</text>
<circle cx="410" cy="390" r="38" fill="#ffcdd2" stroke="#c62828" stroke-width="1.5"/>
<text x="410" y="378" class="label" text-anchor="middle">Diagnosis</text>
<text x="410" y="393" class="count" text-anchor="middle">25,946</text>
<text x="410" y="406" class="tiny" text-anchor="middle">snomed: 26929004</text>
<text x="410" y="416" class="tiny" text-anchor="middle">icd10: G30.9</text>
<circle cx="630" cy="280" r="38" fill="#fff9c4" stroke="#f9a825" stroke-width="1.5"/>
<text x="630" y="268" class="label" text-anchor="middle">CogAssess</text>
<text x="630" y="283" class="count" text-anchor="middle">65,345</text>
<text x="630" y="298" class="tiny" text-anchor="middle">loinc: 72106-8</text>
<circle cx="100" cy="160" r="34" fill="#e1bee7" stroke="#7b1fa2" stroke-width="1.5"/>
<text x="100" y="152" class="label" text-anchor="middle">Biomarker</text>
<text x="100" y="167" class="count" text-anchor="middle">9,467</text>
<text x="100" y="180" class="tiny" text-anchor="middle">loinc: 13967-5</text>
<circle cx="720" cy="160" r="30" fill="#b2dfdb" stroke="#00695c" stroke-width="1.5"/>
<text x="720" y="152" class="label" text-anchor="middle">BrainReg</text>
<text x="720" y="167" class="count" text-anchor="middle">12</text>
<text x="720" y="180" class="tiny" text-anchor="middle">uberon: 0002421</text>
<rect x="270" y="500" width="280" height="60" rx="12" fill="#e8eaf6" stroke="#283593" stroke-width="1.5" opacity="1.0"/>
<text x="410" y="522" class="label" text-anchor="middle">OntologyConcept</text>
<text x="410" y="538" class="small" text-anchor="middle">52 nodes (SNOMED + LOINC + UBERON + HPO + ICD-10)</text>
<text x="410" y="552" class="tiny" text-anchor="middle">uri | code | label | source_ontology</text>
<rect x="600" y="465" width="190" height="50" rx="8" fill="#fce4ec" stroke="#880e4f" stroke-width="1.5" opacity="1.0"/>
<text x="695" y="485" class="label" text-anchor="middle">ICD-10 Hierarchy</text>
<text x="695" y="500" class="tiny" text-anchor="middle">G30.9 IS_A G30 IS_A ...</text>
<line x1="375" y1="190" x2="220" y2="255" stroke="#1565c0" stroke-width="1.5" marker-end="url(#arrowhead)"/>
<text x="280" y="215" class="edge-label" text-anchor="middle">HAS_VISIT</text>
<line x1="210" y1="310" x2="375" y2="370" stroke="#2e7d32" stroke-width="1.5" marker-end="url(#arrowhead)"/>
<text x="275" y="350" class="edge-label" text-anchor="middle">HAS_DIAGNOSIS</text>
<line x1="445" y1="190" x2="600" y2="255" stroke="#f9a825" stroke-width="1.5" marker-end="url(#arrowhead)"/>
<text x="535" y="215" class="edge-label" text-anchor="middle">HAS_COGNITIVE</text>
<line x1="150" y1="175" x2="165" y2="255" stroke="#7b1fa2" stroke-width="1.5" marker-end="url(#arrowhead)"/>
<path d="M 410 428 C 410 465 350 500 350 500" fill="none" stroke="#283593" stroke-width="2" stroke-dasharray="5,3" marker-end="url(#arrowhead-blue)"/>
<text x="345" y="467" class="edge-label" text-anchor="middle">MAPS_TO</text>
<text x="345" y="480" class="tiny" text-anchor="middle">25,946</text>
<path d="M 610 315 C 560 400 460 500 460 500" fill="none" stroke="#283593" stroke-width="2" stroke-dasharray="5,3" marker-end="url(#arrowhead-blue)"/>
<text x="545" y="405" class="edge-label" text-anchor="middle">MAPS_TO</text>
<text x="545" y="418" class="tiny" text-anchor="middle">65,345</text>
<path d="M 115 192 C 150 350 300 500 300 500" fill="none" stroke="#283593" stroke-width="2" stroke-dasharray="5,3" marker-end="url(#arrowhead-blue)"/>
<text x="170" y="360" class="edge-label" text-anchor="middle">MAPS_TO</text>
<text x="170" y="373" class="tiny" text-anchor="middle">9,467</text>
<path d="M 445 410 C 550 440 600 465 600 465" fill="none" stroke="#880e4f" stroke-width="2" stroke-dasharray="5,3" marker-end="url(#arrowhead-red)"/>
<text x="545" y="435" class="edge-label" text-anchor="middle">CLASSIFIED_AS</text>
<text x="545" y="448" class="tiny" text-anchor="middle">25,946</text>
<path d="M 550 530 C 580 510 600 495 600 495" fill="none" stroke="#283593" stroke-width="1.5" marker-end="url(#arrowhead-blue)"/>
<text x="590" y="518" class="tiny" text-anchor="middle">IS_A (27)</text>
<rect x="15" y="570" width="790" height="42" rx="4" fill="#fafafa" stroke="#ccc" stroke-width="1.5" opacity="1.0"/>
<text x="50" y="588" class="label" text-anchor="start">Legend:</text>
<line x1="110" y1="585" x2="150" y2="585" stroke="#555" stroke-width="1.5" marker-end="url(#arrowhead)"/>
<text x="165" y="589" class="tiny" text-anchor="start">Original LPG edge</text>
<line x1="305" y1="585" x2="345" y2="585" stroke="#283593" stroke-width="2" stroke-dasharray="5,3" marker-end="url(#arrowhead-blue)"/>
<text x="360" y="589" class="tiny" text-anchor="start">New semantic edge (MAPS_TO/IS_A)</text>
<line x1="560" y1="585" x2="600" y2="585" stroke="#880e4f" stroke-width="2" stroke-dasharray="5,3" marker-end="url(#arrowhead-red)"/>
<text x="615" y="589" class="tiny" text-anchor="start">CLASSIFIED_AS (ICD-10)</text>
</svg>